<svg width="159" height="87" viewBox="0 0 159 87" fill="none" xmlns="http://www.w3.org/2000/svg">
<g filter="url(#filter0_d_496_1295)">
<path d="M5.36 13.96C5.46667 13.2667 5.52 12.8267 5.52 12.64C5.52 12.5333 5.61333 12.2933 5.8 11.92C5.98667 11.52 6.08 11.2933 6.08 11.24L6.28 10.76C6.28 10.6267 6.44 10.2933 6.76 9.76C7.02667 9.28 7.16 9.02667 7.16 9L7.64 7.96C7.72 7.90667 7.88 7.65333 8.12 7.2C8.36 6.74666 8.56 6.38666 8.72 6.12C9.2 5.16 9.52 4.6 9.68 4.44L10.16 3.6L9 4.16L8.52 4.4C8.33333 4.48 7.96 4.68 7.4 5C6.86667 5.29333 6.54667 5.44 6.44 5.44H6.2C6.06667 5.44 5.89333 5.34667 5.68 5.16V4.4C6.02667 3.92 6.28 3.68 6.44 3.68C6.54667 3.54667 6.96 3.28 7.68 2.88C8.4 2.48 8.97333 2.17333 9.4 1.96C9.53333 1.90666 9.68 1.84 9.84 1.76C10 1.65333 10.16 1.56 10.32 1.48C11.28 0.973332 11.8133 0.719998 11.92 0.719998H12.92L13.48 1.2V1.96L11.04 6.6L11.48 6.48L12.2 6.2C12.44 6.14667 13 6.04 13.88 5.88C14.7867 5.69333 15.64 5.6 16.44 5.6H16.96C17.1733 5.6 17.4267 5.62666 17.72 5.68C18.04 5.73333 18.2933 5.76 18.48 5.76C18.9867 6.10666 19.32 6.28 19.48 6.28L19.76 6.52L20 7.04V7.52L19.68 7.92L19.24 8.04L18.68 7.76H16.52C16.3333 7.76 15.9467 7.82666 15.36 7.96C15.12 7.98667 14.8933 8.02667 14.68 8.08C14.4667 8.13333 14.3067 8.16 14.2 8.16L12.52 8.4L11.48 8.72C11.4 8.72 11.1867 8.77333 10.84 8.88C10.4933 8.96 10.2667 9 10.16 9L9.72 8.92L9.4 9.48C9.34667 9.53333 9.14667 9.88 8.8 10.52C8.37333 11.4 8.08 11.8933 7.92 12C7.81333 12.1067 7.61333 12.4533 7.32 13.04C7.24 13.1467 7.12 13.3467 6.96 13.64C6.82667 13.9067 6.72 14.0667 6.64 14.12L6.44 14.4L5.72 14.6L5.36 13.96ZM5.28 19.12C5.6 18.6667 5.85333 18.4533 6.04 18.48C6.57333 18.2133 6.92 18.0133 7.08 17.88C7.13333 17.88 7.48 17.7467 8.12 17.48C8.86667 17.16 9.26667 17.0133 9.32 17.04C9.42667 17.0667 9.62667 16.9733 9.92 16.76C10.24 16.5467 10.44 16.44 10.52 16.44L11.72 16.04V14.92L11.8 12.24C11.8 12.08 11.8267 11.8667 11.88 11.6C11.9333 11.3333 11.96 11.12 11.96 10.96C11.96 10.8267 12.04 10.5333 12.2 10.08L12.84 9.44H13.08L13.52 9.64C13.5733 9.72 13.6533 9.82667 13.76 9.96C13.8933 10.0933 13.96 10.2133 13.96 10.32C13.96 10.7467 13.92 11.36 13.84 12.16L13.72 14.04L13.68 15.12L14.2 14.96C14.8133 14.8267 15.2 14.6933 15.36 14.56C15.5733 14.5067 16.0133 14.3467 16.68 14.08C18.0133 13.6 18.76 13.3333 18.92 13.28L19.36 13.12C19.4933 13.0933 19.72 13.0267 20.04 12.92C20.36 12.7867 20.5733 12.7333 20.68 12.76L21.08 12.8L21.28 13.2L21.24 13.6C21.24 13.8133 21.1733 14.0133 21.04 14.2C20.9333 14.3867 20.76 14.52 20.52 14.6C20.2533 14.84 20.04 14.9733 19.88 15C19.7467 15.1067 19.48 15.2667 19.08 15.48C18.7067 15.6667 18.4667 15.76 18.36 15.76L15 17.04L14.76 17.32C13.24 17.8267 12.2267 18.2133 11.72 18.48C11.5333 18.5067 11.12 18.6533 10.48 18.92C9.86667 19.16 9.37333 19.3467 9 19.48C8.09333 19.88 7.52 20.1067 7.28 20.16C7.14667 20.16 6.93333 20.2267 6.64 20.36L6.2 20.4L5.76 20.08L5.28 19.64V19.12ZM7.76 28.12L8.28 27.56C8.70667 27.1867 9.02667 27 9.24 27C9.29333 27 9.42667 26.9333 9.64 26.8C9.85333 26.6667 10.04 26.56 10.2 26.48C10.7067 26.1333 11.0133 25.96 11.12 25.96L11.56 25.72L11.48 20.72C11.6933 20.0267 11.88 19.68 12.04 19.68L12.64 19.4L13.2 19.68C13.4133 20.0533 13.52 20.3467 13.52 20.56L13.48 24.84L13.72 24.68C14.8933 24.12 16.1467 23.84 17.48 23.84H18.04L18.32 24.12V24.68L17.72 25.12C17.16 25.3067 16.7867 25.5067 16.6 25.72C15.96 26.0133 15.1067 26.4133 14.04 26.92C13 27.4 12.1733 27.8 11.56 28.12C11.48 28.12 11.2 28.2533 10.72 28.52C10.1867 28.8133 9.88 28.96 9.8 28.96C9.58667 28.96 9.30667 29.0667 8.96 29.28H8.28L7.76 28.68V28.12ZM11.36 32.4C11.36 32.1867 11.4 31.8533 11.48 31.4C11.56 30.92 11.6 30.5867 11.6 30.4C11.6 30.2667 11.7733 30.0667 12.12 29.8C12.4933 29.5333 12.76 29.4 12.92 29.4L14.4 29.64L14.92 29.88L15.52 30.52L16.2 31.56L16.6 33.04L16.64 35.88C16.4267 36.7867 16.32 37.36 16.32 37.6C16.32 37.68 16.2 37.8533 15.96 38.12C15.72 38.4133 15.6 38.6 15.6 38.68L14.92 39.28L14.4 39.56H13.52L12.92 39.28L11.88 38.04L11.6 37.52C11.6 37.3867 11.56 37.12 11.48 36.72C11.4267 36.3467 11.3867 36.0533 11.36 35.84V32.4ZM13.56 36.84C13.5867 36.92 13.6533 37 13.76 37.08C13.8933 37.16 14 37.16 14.08 37.08C14.16 36.9733 14.2533 36.68 14.36 36.2C14.4933 35.7467 14.5733 35.4133 14.6 35.2V33.2L14.2 31.84L13.48 31.24V36.24L13.56 36.84ZM27.9566 16.96C27.9566 16.8533 27.9699 16.72 27.9966 16.56C28.0499 16.4 28.0766 16.2667 28.0766 16.16L28.1566 13.96L27.6766 14.28H27.4766C27.3166 14.28 27.1966 14.2133 27.1166 14.08L26.9966 13.72L26.9566 13.28V12.96L27.1166 12.6L27.2766 12.28C27.3032 12.2 27.4366 11.9867 27.6766 11.64C27.6766 11.5867 27.7699 11.4933 27.9566 11.36C28.1432 11.2267 28.2766 11.12 28.3566 11.04L28.7166 10.88C28.7966 10.8 29.1166 10.6933 29.6766 10.56H30.7966C31.0099 10.6933 31.1566 10.76 31.2366 10.76L32.2366 11.24C32.3166 11.24 32.4499 11.3867 32.6366 11.68C32.8499 11.9733 32.9699 12.1467 32.9966 12.2C33.0766 12.2533 33.2099 12.44 33.3966 12.76C33.5832 13.08 33.7166 13.36 33.7966 13.6C33.8232 13.7867 33.8766 14.0267 33.9566 14.32C34.0366 14.6133 34.0899 14.8533 34.1166 15.04C34.1432 15.2267 34.1699 15.4533 34.1966 15.72C34.2499 15.96 34.2899 16.16 34.3166 16.32V17.8L34.1166 19C34.0366 19.7467 33.9299 20.24 33.7966 20.48C33.7432 20.6133 33.6899 20.8133 33.6366 21.08C33.6099 21.32 33.5699 21.4933 33.5166 21.6L33.3566 21.88L32.9966 22.72L32.8766 23.04C32.7699 23.1467 32.6099 23.4 32.3966 23.8L32.2366 23.96L31.4766 24.6C31.1299 24.7067 30.9032 24.76 30.7966 24.76H30.2766C29.9832 24.6533 29.7966 24.6 29.7166 24.6C29.5566 24.6 29.3832 24.56 29.1966 24.48C29.1166 24.48 28.9699 24.36 28.7566 24.12C28.5699 23.88 28.4499 23.72 28.3966 23.64L28.2766 23.32L28.0766 22.84L27.9566 22.52C27.9299 22.3867 27.8899 22.2 27.8366 21.96C27.8099 21.6933 27.7832 21.4667 27.7566 21.28V17.8L27.9566 17.44V16.96ZM30.0766 17.92C30.0232 19.4133 29.9966 20.4133 29.9966 20.92C29.9966 21.56 30.0499 21.88 30.1566 21.88C30.2099 21.88 30.2899 21.9067 30.3966 21.96C30.5032 22.0133 30.6099 22.0133 30.7166 21.96C30.7966 21.88 30.8899 21.7467 30.9966 21.56C31.1032 21.3733 31.1566 21.2267 31.1566 21.12C31.1832 20.9867 31.3032 20.5867 31.5166 19.92C31.7566 19.2267 31.8632 18.56 31.8366 17.92V14.92C31.7032 14.4933 31.6366 14.2133 31.6366 14.08L31.5166 13.6L31.3566 13.28L30.9566 12.8L30.7966 12.64C30.7432 12.6133 30.6632 12.6 30.5566 12.6C30.3166 12.6 30.1966 12.68 30.1966 12.84L30.1566 14.08L30.0766 17.92ZM40.3966 13.52L40.4766 8.84V7.8C40.4766 7.69333 40.5032 7.48 40.5566 7.16C40.6366 6.81333 40.6899 6.57333 40.7166 6.44L40.7966 6.16L41.0766 5.92L41.3166 5.8H41.7566L41.9966 5.92L42.1166 6.16C42.1966 6.26667 42.2899 6.53333 42.3966 6.96C42.3966 7.09333 42.4099 7.32 42.4366 7.64C42.4899 7.93333 42.5299 8.25333 42.5566 8.6V9.08L42.7166 11.24L42.8366 13.24V15.84C42.8366 15.9733 42.8499 16.1867 42.8766 16.48C42.9032 16.7467 42.9032 16.9333 42.8766 17.04C42.9832 17.0667 43.3432 16.9067 43.9566 16.56C44.5699 16.2133 44.9432 15.9733 45.0766 15.84C45.1032 15.7867 45.2766 15.6933 45.5966 15.56C45.9432 15.4 46.2366 15.2933 46.4766 15.24L46.7566 15.08C46.8366 15.0533 46.9966 14.9733 47.2366 14.84C47.5032 14.7067 47.6632 14.64 47.7166 14.64C47.7966 14.64 47.9699 14.5733 48.2366 14.44L48.6766 14.36H48.7966C48.9032 14.36 49.0366 14.4267 49.1966 14.56C49.2499 14.56 49.3299 14.64 49.4366 14.8L49.3966 15.32L49.1966 15.6L47.3166 17.12L46.5566 17.56L46.1566 17.92L45.6366 18.28L45.3166 18.56L44.8766 18.8L44.5966 18.96C44.5432 18.96 44.3966 19.0133 44.1566 19.12C43.9432 19.2267 43.8099 19.28 43.7566 19.28L43.4766 19.56C43.4232 19.6133 43.3299 19.6533 43.1966 19.68C43.0899 19.7067 42.9966 19.7333 42.9166 19.76L42.8366 22.04V23.76L42.6366 25.6V27.2L42.5566 29.08L42.3966 29.48L42.1166 29.8L41.8766 29.88H41.7566L41.4766 29.8C41.3699 29.8 41.2766 29.6933 41.1966 29.48C41.1699 29.3733 41.1166 29.2 41.0366 28.96C40.9566 28.72 40.9166 28.5467 40.9166 28.44V28.04L40.7166 26.16V25.44C40.6899 25.3067 40.6499 25.04 40.5966 24.64C40.5432 24.24 40.5032 23.8933 40.4766 23.6C40.4766 22.88 40.4632 22.3067 40.4366 21.88C40.4099 21.4267 40.3966 21.16 40.3966 21.08V13.52ZM67.8581 10.4V10.08C67.8848 9.94667 67.9248 9.78667 67.9781 9.6C68.0581 9.41333 68.1115 9.25333 68.1381 9.12L68.2581 8.84C68.4448 8.68 68.5915 8.6 68.6981 8.6L69.0981 8.44H69.3781C69.4581 8.44 69.6048 8.53333 69.8181 8.72C69.8715 8.77333 69.9248 8.88 69.9781 9.04C70.0315 9.17333 70.0581 9.30666 70.0581 9.44V11.6L70.2181 14.2V17.88L70.3381 17.8L70.6581 17.64C70.7115 17.5867 70.8315 17.4933 71.0181 17.36C71.2048 17.2267 71.3381 17.1333 71.4181 17.08L72.0981 16.72C72.1515 16.64 72.3248 16.5333 72.6181 16.4C72.9115 16.24 73.1648 16.12 73.3781 16.04C73.7515 15.8267 74.0981 15.6667 74.4181 15.56C74.7648 15.4267 75.0048 15.3333 75.1381 15.28L75.6581 15.16L76.0981 15H77.0181L77.1381 15.16C77.2448 15.32 77.2981 15.44 77.2981 15.52V15.84L76.4181 16.64C76.3381 16.72 76.1248 16.8533 75.7781 17.04C75.4315 17.2267 75.1648 17.36 74.9781 17.44L74.4581 17.88C74.2448 17.88 74.0315 17.9867 73.8181 18.2C73.6315 18.4133 73.4848 18.5467 73.3781 18.6C73.2981 18.6 73.1648 18.6667 72.9781 18.8C72.7915 18.9333 72.6848 19 72.6581 19C72.6048 19.0533 72.2048 19.28 71.4581 19.68L70.6581 20.12C70.5515 20.12 70.4448 20.16 70.3381 20.24C70.2581 20.2933 70.2181 20.36 70.2181 20.44V24.64L70.3381 26.44V26.6L70.4181 28.12L70.3381 28.96L70.0581 29.24H69.8181L69.4981 29.08L69.0981 28.64L68.9781 28.4L68.8581 28L68.6981 27.68C68.6715 27.5733 68.6181 27.3733 68.5381 27.08C68.4581 26.76 68.4181 26.5467 68.4181 26.44L68.2581 25.48V25.2L68.1381 24.52L68.0181 23.68C67.9915 23.4133 67.9515 23.12 67.8981 22.8C67.8715 22.4533 67.8581 22.2 67.8581 22.04V20.56L67.7381 19.72V12.68L67.8581 10.4ZM50.5381 16.72C50.6181 16.5067 50.6581 16.36 50.6581 16.28C50.6581 16.2 50.6981 16.12 50.7781 16.04C50.8848 15.9333 50.9915 15.88 51.0981 15.88C51.2581 15.8267 51.4848 15.7333 51.7781 15.6C52.0715 15.4667 52.2981 15.3733 52.4581 15.32C52.5381 15.32 52.7115 15.2533 52.9781 15.12C53.2715 14.9867 53.5115 14.8667 53.6981 14.76C53.8048 14.76 53.9915 14.6667 54.2581 14.48C54.3115 14.48 54.4315 14.4133 54.6181 14.28C54.8315 14.1467 54.9515 14.08 54.9781 14.08L55.2181 13.96C55.2981 13.96 55.4715 13.8533 55.7381 13.64L55.8581 13.52C55.8048 13.44 55.7781 13.3467 55.7781 13.24V12.96L55.5781 10.88V10.28L55.4581 8V5.12C55.4581 5.01333 55.4715 4.92 55.4981 4.84C55.5515 4.76 55.5781 4.68 55.5781 4.6C55.5781 4.52 55.6315 4.41333 55.7381 4.28C55.8715 4.12 55.9648 4.04 56.0181 4.04C56.2048 3.96 56.3381 3.92 56.4181 3.92H56.5781C56.6848 3.92 56.8315 3.96 57.0181 4.04L57.1381 4.2L57.2581 4.44C57.2581 4.54667 57.2981 4.68 57.3781 4.84C57.4048 4.94666 57.4315 5.08 57.4581 5.24C57.5115 5.4 57.5515 5.54667 57.5781 5.68V12.72C57.6048 12.72 57.7248 12.6533 57.9381 12.52C58.1781 12.36 58.3248 12.28 58.3781 12.28C58.4315 12.28 58.6581 12.1867 59.0581 12C59.4581 11.7867 59.7381 11.6533 59.8981 11.6L60.5781 11.32L60.8181 11.2C60.8715 11.2 61.0981 11.1067 61.4981 10.92C61.9248 10.7333 62.1648 10.64 62.2181 10.64L62.4981 10.52L63.4581 10.4H63.8581L64.0581 10.52L64.1781 10.8V11.32C64.1781 11.3733 64.0981 11.4667 63.9381 11.6C63.7781 11.7067 63.6715 11.7867 63.6181 11.84C63.4581 11.9467 63.2315 12.0933 62.9381 12.28C62.6715 12.44 62.4315 12.5733 62.2181 12.68C62.1648 12.68 62.0181 12.76 61.7781 12.92C61.5648 13.0533 61.4448 13.12 61.4181 13.12L60.9781 13.4L60.5781 13.52L60.3381 13.64C60.2848 13.64 60.1381 13.7333 59.8981 13.92C59.6848 14.1067 59.5515 14.2 59.4981 14.2L55.2181 16.4C55.1648 16.4533 54.9915 16.5467 54.6981 16.68C54.4048 16.8133 54.1781 16.92 54.0181 17C53.8848 17.0267 53.7381 17.0667 53.5781 17.12C53.4181 17.1467 53.2848 17.1733 53.1781 17.2C53.0448 17.2267 52.8581 17.28 52.6181 17.36C52.4048 17.4133 52.2181 17.4533 52.0581 17.48L51.6181 17.64H51.4981C51.4181 17.64 51.2848 17.5867 51.0981 17.48C51.0181 17.48 50.9248 17.4267 50.8181 17.32C50.7115 17.2133 50.6581 17.1333 50.6581 17.08L50.5381 16.72ZM56.5781 23.2C56.6848 22.56 56.7381 22.1733 56.7381 22.04L56.7781 21.4L56.8581 20.96C56.8581 20.8533 56.8848 20.72 56.9381 20.56C56.9915 20.3733 57.0181 20.2267 57.0181 20.12L57.0981 19.28L57.1381 18.76V18.32L57.3781 17.64C57.3781 17.5333 57.4848 17.44 57.6981 17.36H58.8181L59.2581 17.72L60.0981 17.68C60.2848 17.76 60.4315 17.8 60.5381 17.8L60.7781 17.92C60.8581 17.92 60.9781 18 61.1381 18.16L61.6981 18.76C61.6981 18.84 61.7781 19.0133 61.9381 19.28C62.0981 19.52 62.2181 19.6667 62.2981 19.72C62.3781 19.9067 62.4181 20.04 62.4181 20.12L62.5381 20.68V22.2L62.4181 23.2C62.3381 23.44 62.2981 23.6 62.2981 23.68C62.1648 23.8667 62.0581 24.1867 61.9781 24.64C61.9515 24.7467 61.8981 24.8933 61.8181 25.08C61.7381 25.24 61.6581 25.3733 61.5781 25.48L61.2981 25.88C61.2981 25.9333 61.2315 26.08 61.0981 26.32C60.9648 26.56 60.8981 26.6933 60.8981 26.72C60.8981 26.7733 60.8315 26.88 60.6981 27.04C60.5648 27.1733 60.4981 27.2533 60.4981 27.28L59.9381 27.88C59.9115 27.88 59.8315 27.92 59.6981 28C59.5648 28.08 59.4715 28.12 59.4181 28.12L58.6581 28.24H58.2181C58.1381 28.24 57.9915 28.2133 57.7781 28.16C57.5915 28.08 57.4581 28.04 57.3781 28.04L57.1381 27.92L56.5781 27.08C56.5781 26.9733 56.5248 26.7733 56.4181 26.48V24.24L56.5781 23.2ZM58.5381 25.12C58.5381 25.2267 58.6048 25.36 58.7381 25.52C58.7648 25.4933 58.8848 25.3867 59.0981 25.2C59.3381 24.9867 59.4848 24.8 59.5381 24.64L59.9381 23.56C59.9648 23.32 60.0048 23.0267 60.0581 22.68C60.1381 22.3333 60.1915 22.08 60.2181 21.92V21.4L60.1781 20.48C60.1781 20.3467 60.1381 20.2 60.0581 20.04C60.0581 19.96 60.0048 19.88 59.8981 19.8C59.7915 19.6933 59.7115 19.64 59.6581 19.64L58.8581 19.76C58.8048 21.1467 58.7248 22.0533 58.6181 22.48L58.4981 24.72L58.5381 25.12ZM89.5834 16.92C89.7168 16.7867 89.8901 16.64 90.1034 16.48C90.3434 16.32 90.5301 16.1867 90.6634 16.08C90.8501 15.92 91.5568 15.48 92.7834 14.76C94.0101 14.0133 94.9434 13.4667 95.5834 13.12L96.0234 12.76L97.0234 12.2L97.1034 11.88L97.2234 10.36L97.3434 9.12V8.84L97.4634 8C97.6768 7.70667 97.7834 7.49333 97.7834 7.36C97.8634 7.2 97.9834 7.04 98.1434 6.88C98.3034 6.72 98.4768 6.64 98.6634 6.64H98.8234L99.1434 6.96L99.2634 7.28L99.4234 7.88L99.5434 10.36V10.96L99.4234 12.64L99.3434 15.08L99.2234 17.24V18.08L99.1434 21L98.8634 25.44L98.5434 25.96L98.4234 26.08H97.8234C97.6101 25.8667 97.5034 25.7067 97.5034 25.6C97.4768 25.4933 97.4101 25.2933 97.3034 25C97.2234 24.68 97.1834 24.4533 97.1834 24.32C97.1834 23.8933 97.1434 23.24 97.0634 22.36L96.9434 20.68L96.8634 19.28L96.7434 14.52C96.6634 14.5733 96.4901 14.6933 96.2234 14.88C95.9568 15.04 95.7834 15.16 95.7034 15.24L94.9034 15.72L94.5034 16.2C94.3434 16.3333 94.1568 16.48 93.9434 16.64C93.7301 16.7733 93.5701 16.88 93.4634 16.96C92.7434 17.44 92.3034 17.76 92.1434 17.92L91.9834 18.08L91.7434 18.24L91.2234 18.4L90.8234 18.72H90.1434L89.7034 18.4L89.5434 17.72L89.5834 16.92ZM78.9034 14.76L79.0234 14.44C79.1568 14.3867 79.3568 14.2267 79.6234 13.96L80.4634 13.28L81.5434 12.68L82.0634 12.28L82.6634 11.88L83.6634 11.28L84.7434 10.64L85.1034 10.4L85.6234 10.12L86.0234 9.92L86.5034 9.6L86.6634 9.48C86.9301 9.42667 87.1701 9.28 87.3834 9.04L87.9034 8.96H88.0634C88.1701 8.96 88.3168 9.01333 88.5034 9.12L88.8234 9.48L88.9834 9.72L89.0634 10.36L89.1834 11.08C89.1568 11.16 89.1434 11.3867 89.1434 11.76L89.1834 13.32L89.1034 14.36L89.2234 14.8L88.5834 23.84C88.5834 24 88.5434 24.2667 88.4634 24.64C88.4101 25.0133 88.3568 25.28 88.3034 25.44C88.2768 25.5733 88.2368 25.7333 88.1834 25.92C88.1568 26.1067 88.1434 26.2533 88.1434 26.36L87.9434 26.68L87.2634 27.28L86.8234 27.2C86.7434 27.2 86.6768 27.1333 86.6234 27C86.5701 26.84 86.5434 26.7067 86.5434 26.6C86.5434 26.4933 86.5301 26.1333 86.5034 25.52C86.5034 24.9067 86.5168 24.5333 86.5434 24.4V24.24C86.5434 24.1867 86.5301 23.84 86.5034 23.2C86.5034 22.56 86.5168 22.1867 86.5434 22.08V19.36L86.5834 18.72L86.5434 17.56L86.6634 16.2L86.5834 14.96L86.8234 11.76V11.6L86.3834 11.84L85.6234 12.32L84.6234 13.04L83.1034 14.04C82.4634 14.52 82.0368 14.8133 81.8234 14.92L80.9034 15.36L80.7834 15.68L80.5434 15.84C80.4368 15.84 80.2634 15.92 80.0234 16.08C79.8634 16.16 79.7301 16.1867 79.6234 16.16H79.4234C79.3434 16.1333 79.1968 16.04 78.9834 15.88C78.8501 15.88 78.7701 15.7867 78.7434 15.6L78.9034 14.76ZM102.383 12.2L102.503 10V9.48C102.503 9.21333 102.53 8.90667 102.583 8.56C102.637 8.21333 102.663 7.93333 102.663 7.72L102.783 6.84C102.997 6.49333 103.103 6.26667 103.103 6.16L103.223 6.04C103.463 5.93333 103.637 5.88 103.743 5.88H103.863L104.143 6.04L104.263 6.16C104.29 6.29333 104.33 6.45333 104.383 6.64C104.437 6.82667 104.477 6.97333 104.503 7.08C104.583 7.50667 104.623 7.81333 104.623 8C104.623 8.13333 104.65 8.33333 104.703 8.6C104.783 8.86667 104.823 9.04 104.823 9.12V9.48C104.823 9.64 104.837 10.0933 104.863 10.84C104.917 11.5867 104.943 12.24 104.943 12.8C104.943 12.8533 104.957 13.0533 104.983 13.4C105.01 13.72 105.023 14.1467 105.023 14.68C105.023 15 104.997 15.6133 104.943 16.52C104.997 16.7867 105.023 17 105.023 17.16C105.023 17.4267 105.01 17.64 104.983 17.8C104.957 17.9333 104.943 18.0267 104.943 18.08V21.6C104.943 21.7067 104.917 21.84 104.863 22C104.837 22.1333 104.823 22.2667 104.823 22.4V23.48L104.623 25.44V25.6C104.623 25.7067 104.583 25.92 104.503 26.24C104.503 26.3467 104.33 26.5333 103.983 26.8H103.743L103.383 26.68L103.223 26.48C103.223 26.4 103.117 26.2667 102.903 26.08L102.783 25.6L102.703 24V22.92L102.503 21V20.32L102.383 18.56V12.2ZM6.04 72.2C6.14667 72.12 6.29333 72.0267 6.48 71.92C6.66667 71.7867 6.8 71.72 6.88 71.72H7.24L7.84 71.48H8.08L11.32 70.08H11.48L11.92 69.96L12.04 68.96C12.04 68.7467 12.0933 68.36 12.2 67.8L12.48 63.72V62.76L12.04 63L11.8 63.16L11.68 63.28L11.32 63.4L10.6 63.92L9.48 64.72C9.37333 64.8267 9.14667 64.96 8.8 65.12H8.68C8.52 65.12 8.30667 65.08 8.04 65L7.8 64.88H7.6C7.52 64.7733 7.34667 64.64 7.08 64.48C6.94667 64.1867 6.88 63.9333 6.88 63.72V63.6L7 63.16L7.12 62.32C7.12 62.24 7.17333 61.9067 7.28 61.32L7.4 60.32L7.52 59.24L7.68 58.96L7.84 57.6L7.96 56.4L7.68 56.56C7.38667 56.72 7.2 56.8 7.12 56.8L6.4 57.08C6.32 57.16 6.14667 57.2133 5.88 57.24C5.61333 57.2667 5.41333 57.28 5.28 57.28H4.72C4.72 57.2267 4.65333 57.12 4.52 56.96C4.38667 56.8 4.32 56.7067 4.32 56.68L4.16 56.56V56.28C4.16 56.2533 4.18667 56.2133 4.24 56.16C4.29333 56.1067 4.32 56.04 4.32 55.96C4.32 55.88 4.36 55.76 4.44 55.6L5 55.32L5.56 54.76L5.88 54.6H6.04C6.06667 54.6 6.25333 54.48 6.6 54.24C6.97333 54 7.28 53.8267 7.52 53.72C7.65333 53.6933 7.8 53.6533 7.96 53.6C8.12 53.5467 8.25333 53.5067 8.36 53.48L8.96 53.04L9.24 52.88L9.8 52.76L10.32 52.52H10.52C10.5733 52.52 10.68 52.4533 10.84 52.32C11.0267 52.16 11.1333 52.08 11.16 52.08L11.48 51.92L12.48 51.52H12.88L13.6 51.04C13.7067 51.0133 13.8533 50.9733 14.04 50.92C14.2533 50.8667 14.44 50.8267 14.6 50.8C14.7067 50.8 14.8533 50.7733 15.04 50.72C15.2533 50.6667 15.4133 50.64 15.52 50.64H15.68L16.76 50.8L17.08 51.04L17.24 51.36V51.8L16.76 52.2H16.64C16.5867 52.2 16.44 52.28 16.2 52.44C15.96 52.5733 15.8267 52.64 15.8 52.64L15.4 52.76C15.3733 52.76 15.2933 52.8133 15.16 52.92C15.0267 53 14.9333 53.04 14.88 53.04H14.72C14.6933 53.04 14.56 53.1333 14.32 53.32C14.08 53.5067 13.9333 53.6 13.88 53.6L13.48 53.72L13.16 53.88L12.76 54.16C12.7067 54.24 12.52 54.3467 12.2 54.48C11.88 54.6133 11.7067 54.7067 11.68 54.76L11.16 54.96C11 55.04 10.8667 55.1467 10.76 55.28C10.7333 55.28 10.64 55.3333 10.48 55.44C10.32 55.5467 10.2133 55.6 10.16 55.6L10.08 58.28V59.24L9.96 60.32L9.88 60.6L9.84 61.08V61.4L10.08 61.2C10.16 61.12 10.2933 61.0267 10.48 60.92C10.6933 60.7867 10.84 60.72 10.92 60.72C10.9733 60.6667 11.16 60.5733 11.48 60.44C11.8267 60.3067 12.0133 60.2267 12.04 60.2H12.2C12.2533 60.2 12.4 60.1467 12.64 60.04C12.88 59.9067 13.0533 59.8267 13.16 59.8L13.6 59.64C13.9733 59.4533 14.2133 59.36 14.32 59.36C14.4267 59.3333 14.6 59.28 14.84 59.2C15.1067 59.0933 15.2667 59.04 15.32 59.04C15.6667 58.88 15.8933 58.8 16 58.8C16.08 58.8 16.1733 58.7867 16.28 58.76C16.4133 58.7333 16.52 58.72 16.6 58.72L17.16 58.56H17.6L18.16 58.44H19.16L19.4 58.56L19.52 58.72L19.64 59.28L19 59.96L18.56 60.16H18.44L18.04 60.28C17.96 60.28 17.7733 60.36 17.48 60.52H17.16C17.08 60.52 16.84 60.6267 16.44 60.84L16.28 60.96C16.2533 60.96 16.12 61.0267 15.88 61.16C15.64 61.2933 15.4933 61.36 15.44 61.36H15.16C14.8667 61.5467 14.68 61.64 14.6 61.64L14.16 61.92L14 62.04C14 62.0667 14.0533 62.16 14.16 62.32C14.2667 62.4533 14.32 62.5467 14.32 62.6C14.3467 62.76 14.3867 62.96 14.44 63.2C14.52 63.4133 14.5733 63.5867 14.6 63.72V65.88C14.5733 66.04 14.5333 66.2667 14.48 66.56C14.4533 66.8533 14.4267 67.0933 14.4 67.28L14.24 68.24L14.16 68.96H14.32L14.72 68.76H14.88C14.9867 68.7333 15.0933 68.6933 15.2 68.64C15.3333 68.5867 15.4533 68.5467 15.56 68.52L16.28 68.4C16.4133 68.3733 16.5733 68.3333 16.76 68.28C16.9467 68.2 17.1067 68.1467 17.24 68.12H17.64C17.72 68.0933 17.84 68.04 18 67.96C18.1867 67.8533 18.3067 67.8 18.36 67.8L19.04 67.68L19.44 67.56H19.92L21.64 67.08H22.8C22.88 67.08 22.96 67.1333 23.04 67.24V67.76C23.04 67.8133 22.9333 67.9333 22.72 68.12C22.5333 68.3067 22.4133 68.4267 22.36 68.48C22.0667 68.64 21.88 68.72 21.8 68.72H21.48C21.4533 68.72 21.3467 68.7733 21.16 68.88C20.9733 68.9867 20.8533 69.04 20.8 69.04L20 69.32C19.52 69.5333 19.2533 69.64 19.2 69.64C19.1467 69.64 19.0267 69.6933 18.84 69.8C18.68 69.88 18.56 69.9333 18.48 69.96H18.36L17.96 70.08L17.88 70.2H17.68L17.28 70.32L17 70.48H16.8C16.6933 70.56 16.4933 70.6533 16.2 70.76C15.9333 70.84 15.72 70.8933 15.56 70.92C15.5333 70.92 15.4 70.9867 15.16 71.12C14.92 71.2533 14.7733 71.32 14.72 71.32H14.6C14.5467 71.32 14.4 71.3867 14.16 71.52C13.92 71.6533 13.7733 71.72 13.72 71.72L13.32 71.92C13.2667 71.92 13.12 71.9733 12.88 72.08C12.6667 72.1867 12.5333 72.24 12.48 72.24H12.2C12.1467 72.24 12 72.3333 11.76 72.52C11.52 72.7067 11.3733 72.8 11.32 72.8C11.2667 72.8 11.16 72.84 11 72.92C10.84 72.9733 10.72 73.0133 10.64 73.04C10.5333 73.0667 10.3733 73.12 10.16 73.2C9.97333 73.28 9.85333 73.32 9.8 73.32C9.69333 73.3467 9.57333 73.3867 9.44 73.44C9.33333 73.4933 9.22667 73.5333 9.12 73.56H8.96C8.85333 73.5867 8.69333 73.6533 8.48 73.76C8.26667 73.84 8.13333 73.88 8.08 73.88L6.88 74C6.66667 73.92 6.52 73.88 6.44 73.88L6.16 73.76L5.88 73.44V72.48L6.04 72.2ZM24.2 57.68V55.68C24.2267 55.44 24.2667 55.1467 24.32 54.8C24.3733 54.4533 24.4133 54.2 24.44 54.04V53.32C24.44 53.16 24.4533 52.9733 24.48 52.76C24.5333 52.5467 24.56 52.3733 24.56 52.24C24.64 51.9733 24.72 51.7867 24.8 51.68C24.8 51.5733 24.9067 51.4267 25.12 51.24L25.44 51.08L26.24 51.36C26.32 51.4667 26.4 51.6267 26.48 51.84L26.6 52.72L26.68 53.92L26.76 54.92L26.8 62.04V64.2L26.76 67.88V68.64L26.68 70.8C26.6 71.68 26.56 72.4 26.56 72.96C26.56 73.04 26.52 73.16 26.44 73.32C26.36 73.48 26.32 73.6133 26.32 73.72L25.96 73.96H25.8L25.52 73.84L25.4 73.72L24.92 73.08C24.8133 72.8933 24.76 72.7333 24.76 72.6C24.76 72.4933 24.7333 72.3867 24.68 72.28C24.6533 72.1467 24.64 72.0267 24.64 71.92L24.52 70.32C24.4933 70.16 24.4533 69.96 24.4 69.72C24.3733 69.48 24.3467 69.28 24.32 69.12V67.52L24.24 66.32L24.16 65.28L24.08 59.92L24.2 57.68ZM49.2678 71.32C49.2678 71.4 49.1878 71.64 49.0278 72.04C48.8678 72.44 48.7878 72.6933 48.7878 72.8L48.5478 73.72C48.4678 73.9333 48.3878 74.1733 48.3078 74.44C48.2278 74.7067 48.1478 74.9467 48.0678 75.16C47.8545 75.9067 47.7078 76.36 47.6278 76.52C47.6278 76.68 47.5611 76.8267 47.4278 76.96C47.2945 77.0933 47.2145 77.1867 47.1878 77.24L46.6278 77.48H46.1878C46.0545 77.16 45.9878 76.9333 45.9878 76.8C45.9878 76.64 46.0678 76.24 46.2278 75.6C46.3611 75.12 46.4278 74.8133 46.4278 74.68L46.5878 73.8C45.2811 73.48 44.2145 73.0133 43.3878 72.4C43.3078 72.4 43.0945 72.2267 42.7478 71.88C42.4011 71.5067 42.1345 71.2667 41.9478 71.16C41.8411 71.3733 41.7345 71.6267 41.6278 71.92C41.5478 72.2133 41.5078 72.4133 41.5078 72.52C41.5078 72.6533 41.3745 72.9867 41.1078 73.52C40.8945 74.0533 40.7878 74.3467 40.7878 74.4C40.7878 74.5067 40.7078 74.68 40.5478 74.92C40.4145 75.1333 40.3478 75.2667 40.3478 75.32L40.0278 75.6L39.2278 75.44L38.9078 74.88L39.0278 73.48C39.0278 73.24 39.2678 72.3467 39.7478 70.8C39.8011 70.5067 40.0545 69.8 40.5078 68.68C40.7745 68.0667 40.9478 67.6133 41.0278 67.32C41.0278 67.16 41.2545 66.7733 41.7078 66.16C42.0278 66 42.2811 65.92 42.4678 65.92H42.9878L43.4678 66.4V66.64C43.4678 66.96 43.3878 67.24 43.2278 67.48C43.0945 67.6933 43.0011 67.8667 42.9478 68L42.7078 69.04L44.1078 70.2C44.3478 70.4133 44.6011 70.6267 44.8678 70.84C45.1611 71.0533 45.3745 71.2133 45.5078 71.32C45.5611 71.4 45.7611 71.5733 46.1078 71.84C46.4545 72.08 46.7211 72.28 46.9078 72.44C47.1211 71.7467 47.2678 71.2267 47.3478 70.88C47.6411 69.7333 47.9211 68.84 48.1878 68.2C48.2678 67.88 48.4545 67.3733 48.7478 66.68C49.0145 66.3333 49.2278 66.1333 49.3878 66.08H49.6278L50.0678 66.32L50.3478 66.72C50.3745 66.8 50.3478 67.1067 50.2678 67.64C50.1878 68.1467 50.1345 68.48 50.1078 68.64L49.9878 69.2L51.1878 69.64C51.3478 69.8533 51.7345 70.1067 52.3478 70.4C52.4811 70.5333 52.7345 70.7467 53.1078 71.04C53.4811 71.3067 53.7611 71.5333 53.9478 71.72C54.1345 71.8267 54.5478 72.2 55.1878 72.84C55.8545 73.48 56.2945 73.8933 56.5078 74.08L57.3878 74.96L57.8278 75.36C57.9878 75.5467 58.1478 75.7867 58.3078 76.08L58.3878 76.6L57.9478 76.96H57.2278L56.7078 76.76L55.7078 76.12C54.7211 75.48 54.1345 75.12 53.9478 75.04C53.7345 74.8533 53.4545 74.64 53.1078 74.4C52.7878 74.1333 52.5078 73.92 52.2678 73.76C52.1878 73.6 52.0011 73.44 51.7078 73.28C51.4411 73.0933 51.2678 72.96 51.1878 72.88L50.4278 72.32L49.2678 71.32ZM34.1078 60.04L34.1878 57.44V57.2C34.1878 57.0667 34.2811 56.6267 34.4678 55.88C34.5745 55.3467 34.6278 55.0667 34.6278 55.04C34.6278 54.9067 34.7878 54.6 35.1078 54.12L35.5478 53.92H36.5078L37.2278 54.12L37.9878 54.48C38.4678 54.96 38.7878 55.2667 38.9478 55.4C38.9478 55.56 39.1078 55.8133 39.4278 56.16C39.4545 56.3467 39.4945 56.6 39.5478 56.92C39.6278 57.2133 39.6811 57.4533 39.7078 57.64L39.7478 60.24C39.7478 60.3733 39.7211 60.52 39.6678 60.68C39.6145 60.84 39.5745 60.9867 39.5478 61.12C39.4145 61.52 39.3478 61.7867 39.3478 61.92L39.2278 62.36C38.9345 62.9467 38.7878 63.32 38.7878 63.48C38.7878 63.64 38.6145 63.8667 38.2678 64.16L37.7878 64.64L37.3078 64.88H36.3078C36.1478 64.88 35.8945 64.8 35.5478 64.64L34.7878 63.72L34.5478 63.24C34.2545 62.3067 34.1078 61.48 34.1078 60.76V60.04ZM36.6678 62.72C36.8811 62.4 37.0678 62.16 37.2278 62L37.4278 61.24C37.4278 61.1067 37.5078 60.64 37.6678 59.84L37.7078 57.6L37.4278 56.6L36.7878 55.84L36.3078 55.64V62.36L36.6678 62.72ZM41.7078 58.6L41.9478 58.12C42.2945 57.8 42.5345 57.64 42.6678 57.64C42.8278 57.5067 43.2145 57.28 43.8278 56.96C43.9611 56.8533 44.2945 56.6667 44.8278 56.4C45.3878 56.1333 45.8411 55.92 46.1878 55.76C46.2945 55.76 46.6678 55.6 47.3078 55.28C47.8945 54.9867 48.2278 54.84 48.3078 54.84C48.4678 54.84 48.7878 54.6933 49.2678 54.4L49.7078 54.12L49.7878 52.24C49.7878 51.9733 49.8545 51.5067 49.9878 50.84C50.2811 50.52 50.5211 50.36 50.7078 50.36H51.4278L51.6678 50.6L51.8678 51.04L51.9078 61L51.7478 63.6C51.7478 63.7333 51.6411 63.9467 51.4278 64.24H51.1878L50.7478 64.04C50.5345 63.88 50.3345 63.64 50.1478 63.32C50.0145 63 49.9478 62.76 49.9478 62.6L49.8678 60.96L49.7878 58.6V57.88L49.8278 56.48L49.2678 56.72L43.0278 59.8C42.4678 59.6133 42.1078 59.52 41.9478 59.52L41.7078 59.32V58.6ZM67.7547 74.68C67.7547 74.5733 67.8214 74.3467 67.9547 74C68.1147 73.6267 68.1947 73.4133 68.1947 73.36C68.3814 73.0667 68.5547 72.8267 68.7147 72.64C68.7947 72.4533 68.9947 72.1733 69.3147 71.8C69.6614 71.4267 69.9414 71.1333 70.1547 70.92C70.368 70.6533 70.8614 70.1333 71.6347 69.36L71.5147 65.88L71.6747 64.76C71.808 64.4667 71.9414 64.32 72.0747 64.32L72.9147 64.44C73.2614 64.8667 73.4214 65.1733 73.3947 65.36C73.448 65.6533 73.5014 66.0667 73.5547 66.6C73.6347 67.1067 73.688 67.5067 73.7147 67.8C73.928 67.64 74.1947 67.48 74.5147 67.32C74.8614 67.16 75.088 67.08 75.1947 67.08L75.6347 67.12L75.8347 67.36V68L75.5547 68.48L74.1547 69.76L74.0747 72.92C74.048 73.08 74.008 73.3333 73.9547 73.68C73.9014 74.0267 73.8614 74.3467 73.8347 74.64C73.8347 74.8267 73.7947 75.1067 73.7147 75.48C73.6347 75.8267 73.5814 76.0667 73.5547 76.2C73.528 76.36 73.2747 76.8 72.7947 77.52C72.7947 77.68 72.5547 77.96 72.0747 78.36C71.7814 78.6533 71.568 78.8 71.4347 78.8L70.5147 79H69.7147L68.8347 78.56L68.3547 78.12C68.3547 78.04 68.2747 77.88 68.1147 77.64C67.9547 77.4267 67.8747 77.28 67.8747 77.2V77.12C67.8747 76.96 67.8347 76.76 67.7547 76.52C67.7014 76.2533 67.688 76.08 67.7147 76L67.7547 74.68ZM58.7147 56.68C58.7414 56.3867 58.7814 55.88 58.8347 55.16C58.9147 54.4133 59.008 53.8933 59.1147 53.6L59.3547 52.64C59.5147 52.0533 59.5947 51.6933 59.5947 51.56C59.5947 51.48 59.6614 51.2533 59.7947 50.88C59.928 50.5067 59.9947 50.28 59.9947 50.2C60.1014 50.0933 60.2347 49.88 60.3947 49.56C60.5814 49.2133 60.6747 48.9867 60.6747 48.88L61.0747 48.64H61.7947L62.2747 49.12V49.56C62.1414 50.0667 61.9147 51.24 61.5947 53.08C61.2747 54.92 61.0347 56.36 60.8747 57.4C60.8747 57.6133 60.808 58.0933 60.6747 58.84L60.4747 60.52C60.4747 60.5733 60.4214 60.72 60.3147 60.96C60.208 61.1733 60.1547 61.32 60.1547 61.4L59.5947 61.64H59.3547L58.8747 61.16L58.5947 59.48L58.7147 56.68ZM58.7547 64.96C58.8347 64.88 59.0214 64.7467 59.3147 64.56C59.6347 64.3467 59.8614 64.1867 59.9947 64.08L64.4747 61.88C65.168 61.64 65.5814 61.52 65.7147 61.52C66.008 61.36 66.608 61.1333 67.5147 60.84C70.4747 59.96 72.2347 59.4667 72.7947 59.36C72.9547 59.36 73.168 59.3333 73.4347 59.28C73.7014 59.2267 73.9414 59.2 74.1547 59.2H74.5947L74.9947 59.36L75.4747 59.84V60.08L75.2747 60.52C74.928 60.7333 74.7014 60.84 74.5947 60.84L74.1547 61.08L72.9947 61.52L72.3547 61.8L67.1947 63.68L65.1947 64.48L64.7147 64.64L64.0747 64.88L62.8747 65.44C62.7947 65.44 62.5414 65.5333 62.1147 65.72C61.528 65.9333 61.1814 66.04 61.0747 66.04L60.1947 66.52H59.5947L58.8747 66.32L58.6747 65.8L58.7547 64.96ZM62.3147 54.28C62.4747 53.9333 62.6214 53.72 62.7547 53.64L62.9947 53.44C63.4747 53.1467 63.808 53 63.9947 53C64.0747 52.92 64.3414 52.7867 64.7947 52.6C65.2747 52.4133 65.568 52.32 65.6747 52.32C65.9947 52.2133 66.3814 52.1067 66.8347 52C67.3147 51.8667 67.608 51.8 67.7147 51.8H68.7147C69.488 51.7467 69.9947 51.7333 70.2347 51.76L71.5947 51.96C71.9947 52.04 72.2747 52.16 72.4347 52.32L72.7547 52.8L72.6747 53.4L72.2347 53.68C72.1547 53.68 71.9014 53.7067 71.4747 53.76C71.0747 53.7867 70.8347 53.7867 70.7547 53.76C70.568 53.76 70.2214 53.8133 69.7147 53.92C69.208 54 68.8747 54.0533 68.7147 54.08L63.7547 55.44H63.3147C63.1814 55.4133 62.968 55.3333 62.6747 55.2L62.2747 54.72L62.3147 54.28ZM64.0347 67.6L64.1147 67.28L64.4347 66.72L65.1947 66.48C65.3014 66.48 65.4347 66.56 65.5947 66.72C65.7547 66.9867 65.8347 67.2 65.8347 67.36L65.8747 70.48L66.0747 72.96L66.1547 73.92C66.2347 74.3467 66.2747 74.7067 66.2747 75L66.3547 76.28L66.0747 76.76H65.5947L65.1947 76.52C64.8747 76.2533 64.7147 76.04 64.7147 75.88C64.7147 75.88 64.648 75.6133 64.5147 75.08C64.3547 74.6 64.2747 74.3333 64.2747 74.28C64.248 74.12 64.208 73.92 64.1547 73.68C64.128 73.44 64.1014 73.24 64.0747 73.08C64.0747 72.7867 64.0347 72.2933 63.9547 71.6C63.9014 70.88 63.8747 70.44 63.8747 70.28L64.0347 67.6ZM69.8347 77.08H70.2347C70.4214 76.9733 70.6747 76.7867 70.9947 76.52C71.368 75.64 71.5547 75.1333 71.5547 75C71.5814 74.8133 71.608 74.5733 71.6347 74.28C71.688 73.96 71.728 73.68 71.7547 73.44L71.9147 71.68L71.1547 72.52L70.3547 73.48C70.2214 73.64 70.0347 74.04 69.7947 74.68L69.5947 75.8V76.64L69.8347 77.08ZM81.1509 60.56C81.1509 60.1333 81.1776 59.48 81.2309 58.6C81.2843 57.6933 81.3509 57.08 81.4309 56.76C81.4309 56.6533 81.4709 56.3733 81.5509 55.92C81.6576 55.4667 81.7109 55.1467 81.7109 54.96C81.7109 54.88 81.7243 54.8 81.7509 54.72C81.8043 54.6133 81.8309 54.52 81.8309 54.44L81.9909 54.12C82.0976 54.04 82.1909 53.92 82.2709 53.76L82.3909 53.72L82.6309 53.68C82.7376 53.68 82.8309 53.7467 82.9109 53.88C82.9909 53.9867 83.0576 54.1333 83.1109 54.32L83.2309 56.24V57.12L83.3909 59.44V62.48L83.4709 65.56C83.6043 65.5333 83.8309 65.4533 84.1509 65.32C84.4976 65.1867 84.7109 65.12 84.7909 65.12C84.8976 65.0933 85.0709 65.0267 85.3109 64.92C85.5509 64.7867 85.6976 64.72 85.7509 64.72C86.4443 64.4267 86.8176 64.28 86.8709 64.28L87.3909 64.16C87.4443 64.16 87.5776 64.0933 87.7909 63.96C88.0309 63.8267 88.1776 63.76 88.2309 63.76C88.3376 63.68 88.4976 63.5867 88.7109 63.48C88.9509 63.3733 89.1109 63.32 89.1909 63.32L89.7909 63.2L90.0709 63.04C90.2309 63.0133 90.4576 62.96 90.7509 62.88C91.0709 62.7733 91.3109 62.7067 91.4709 62.68L91.8709 62.48C91.9509 62.48 92.0443 62.4667 92.1509 62.44C92.2576 62.3867 92.3509 62.36 92.4309 62.36L93.1509 62.24L93.6709 62.36L93.7909 62.68L93.6709 62.92L93.5509 63.04C93.3643 63.2267 93.2309 63.32 93.1509 63.32C92.7776 63.6133 92.5376 63.76 92.4309 63.76L91.8709 64.04C91.8443 64.04 91.7376 64.12 91.5509 64.28C91.3643 64.4133 91.2309 64.48 91.1509 64.48C91.1243 64.5067 90.8976 64.6133 90.4709 64.8C90.0709 64.9867 89.8443 65.1067 89.7909 65.16L89.3909 65.48C89.3109 65.48 89.1243 65.56 88.8309 65.72C88.5376 65.88 88.3376 65.9733 88.2309 66L87.8309 66.32L86.8709 66.84C86.8176 66.84 86.6043 66.9333 86.2309 67.12C85.8576 67.3067 85.6443 67.4 85.5909 67.4C85.5376 67.4 85.3376 67.4933 84.9909 67.68C84.6709 67.8667 84.4976 67.96 84.4709 67.96L84.0709 68.12L83.9509 68.24C83.8709 68.32 83.7376 68.3867 83.5509 68.44C83.3643 68.4933 83.2176 68.52 83.1109 68.52H81.9909L81.7109 68.4C81.7109 68.3467 81.6309 68.2533 81.4709 68.12C81.3376 67.96 81.2709 67.8533 81.2709 67.8L81.1509 67.4V60.56ZM95.8309 53.28C95.9376 52.6933 95.9909 52.3333 95.9909 52.2L96.1509 51.92C96.1509 51.84 96.2309 51.7067 96.3909 51.52C96.6843 51.2267 96.8843 51.08 96.9909 51.08H97.0709C97.1509 51.08 97.3376 51.28 97.6309 51.68C97.7376 51.84 97.7909 51.9733 97.7909 52.08C97.7909 52.1867 97.8043 52.3333 97.8309 52.52C97.8843 52.7067 97.9243 52.88 97.9509 53.04L98.0309 54.96L98.1509 56.52V57.24L98.2309 61V63.04L98.1509 67.4V68.92L98.0309 70.72C97.8443 71.0133 97.6976 71.16 97.5909 71.16L97.3509 71.28H97.2709C97.1109 71.12 96.9643 71.04 96.8309 71.04L96.6309 70.72C96.4443 70.3733 96.3509 70.1467 96.3509 70.04L96.2309 69.48C96.1776 69.2933 96.1243 68.9733 96.0709 68.52C96.0443 68.0667 96.0309 67.7467 96.0309 67.56V67.12L95.9109 66.44C95.9109 66.3333 95.8843 66.1867 95.8309 66C95.8043 65.7867 95.7909 65.5733 95.7909 65.36L95.7509 62.68V62.24L95.6709 59.92L95.7109 54.12L95.8309 53.28ZM121.018 72.44C120.938 72.2533 120.858 71.84 120.778 71.2C120.698 70.5333 120.645 70.0133 120.618 69.64V68.88L120.498 66.44V57.56L120.618 54.84V54.32C120.618 53.9733 120.632 53.6267 120.658 53.28C120.712 52.9333 120.738 52.68 120.738 52.52C120.738 52.36 120.752 52.1867 120.778 52C120.832 51.8133 120.858 51.6667 120.858 51.56C120.858 51.3733 120.965 51.0133 121.178 50.48C121.205 50.4 121.272 50.3067 121.378 50.2C121.485 50.0667 121.578 50 121.658 50H122.178L122.418 50.12L122.698 50.4L122.858 50.8L122.898 51.6L122.978 52.64V54.84L123.098 56.28V60.56L123.138 61.36L123.498 61.2C123.605 61.1733 123.752 61.1333 123.938 61.08C124.125 61 124.245 60.96 124.298 60.96C124.378 60.9333 124.512 60.8667 124.698 60.76C124.885 60.6267 125.005 60.56 125.058 60.56C125.165 60.5333 125.298 60.4933 125.458 60.44C125.618 60.36 125.752 60.3067 125.858 60.28L126.538 60.04C126.618 60.0133 126.792 59.9467 127.058 59.84C127.325 59.7067 127.485 59.64 127.538 59.64C127.858 59.4533 128.058 59.36 128.138 59.36C128.672 59.2267 128.978 59.16 129.058 59.16H129.858C130.045 59.24 130.178 59.28 130.258 59.28L130.378 59.36V59.6L130.258 59.96L129.618 60.76L129.378 60.92C129.165 61 128.858 61.16 128.458 61.4L128.298 61.52C128.192 61.6267 127.938 61.7467 127.538 61.88C127.405 61.96 127.258 62.04 127.098 62.12C126.938 62.1733 126.818 62.24 126.738 62.32L126.618 62.44L125.738 62.96L125.418 63.12C125.392 63.12 125.298 63.1867 125.138 63.32C124.978 63.4267 124.872 63.48 124.818 63.48L124.498 63.64L124.138 63.76C123.978 63.84 123.845 63.9333 123.738 64.04L123.138 64.32L123.098 64.84V66.08L122.978 68.16V68.76L122.858 70.36L122.778 71.32L122.698 72.44L122.578 72.96L122.418 73.24L122.098 73.32H121.658C121.498 73.2667 121.418 73.1867 121.418 73.08C121.258 72.92 121.178 72.7733 121.178 72.64L121.018 72.44ZM103.018 57.56L103.098 57.28L103.418 57.08C103.498 56.9733 103.658 56.8267 103.898 56.64L104.578 56.36L105.258 56.16C105.312 56.16 105.392 56.1067 105.498 56C105.632 55.8933 105.712 55.84 105.738 55.84L106.098 55.6L106.698 55.48C106.805 55.4533 106.978 55.3733 107.218 55.24C107.485 55.1067 107.645 55.04 107.698 55.04L108.218 54.84L108.618 54.72C108.752 54.6933 108.938 54.6533 109.178 54.6C109.418 54.52 109.618 54.4667 109.778 54.44C109.832 54.44 110.058 54.36 110.458 54.2C110.858 54.04 111.112 53.9467 111.218 53.92C111.352 53.8933 111.525 53.8533 111.738 53.8C111.952 53.72 112.125 53.6667 112.258 53.64L112.658 53.52C112.765 53.52 112.872 53.5067 112.978 53.48C113.112 53.4267 113.232 53.4 113.338 53.4H113.418C113.525 53.4 113.738 53.44 114.058 53.52L114.218 53.64L114.338 53.92V54.12C114.338 54.2 114.285 54.3067 114.178 54.44C114.098 54.5733 114.058 54.6667 114.058 54.72L113.858 54.92C113.778 55 113.685 55.04 113.578 55.04C113.498 55.12 113.085 55.32 112.338 55.64C111.805 55.8533 111.432 56.0267 111.218 56.16L110.978 56.28C110.765 56.36 110.525 56.4533 110.258 56.56C109.992 56.64 109.778 56.7067 109.618 56.76L109.258 56.92C109.178 56.9467 109.072 56.9867 108.938 57.04C108.805 57.0933 108.698 57.1333 108.618 57.16L108.658 58.48L108.578 59.44L108.538 65.44L110.218 64.72L110.698 64.64L111.338 64.44L111.618 64.24C111.672 64.24 111.898 64.1733 112.298 64.04C112.725 63.88 113.018 63.7867 113.178 63.76C113.232 63.76 113.405 63.6933 113.698 63.56C113.992 63.4 114.165 63.32 114.218 63.32L114.498 63.2C114.552 63.2 114.725 63.1467 115.018 63.04C115.338 62.9333 115.552 62.8667 115.658 62.84L116.258 62.6C116.338 62.6 116.485 62.56 116.698 62.48C116.938 62.4 117.112 62.3467 117.218 62.32H117.378C117.432 62.32 117.552 62.4133 117.738 62.6L117.858 62.88V63.04L117.738 63.32C117.258 63.8 116.992 64.04 116.938 64.04C116.085 64.6 115.525 64.92 115.258 65L114.778 65.2C114.752 65.2 114.632 65.28 114.418 65.44C114.232 65.5733 114.112 65.64 114.058 65.64C113.978 65.6667 113.858 65.7333 113.698 65.84C113.538 65.92 113.418 65.9733 113.338 66C113.152 66.2133 113.018 66.32 112.938 66.32L112.818 66.44L112.538 66.6C112.458 66.6267 112.018 66.8533 111.218 67.28C110.712 67.5733 110.445 67.72 110.418 67.72L109.938 68C109.885 68 109.765 68.0933 109.578 68.28C109.418 68.44 109.312 68.52 109.258 68.52L109.018 68.64L108.498 69.16C108.045 69.3467 107.738 69.44 107.578 69.44H107.418C107.285 69.36 107.152 69.32 107.018 69.32L106.778 69.16C106.752 69.1067 106.658 69 106.498 68.84C106.365 68.68 106.298 68.5733 106.298 68.52V68C106.298 67.8933 106.312 67.7867 106.338 67.68C106.392 67.5467 106.418 67.44 106.418 67.36V66.92C106.418 66.4667 106.445 65.8267 106.498 65C106.552 64.1733 106.578 63.7067 106.578 63.6C106.578 63.52 106.605 63.4 106.658 63.24C106.712 63.08 106.738 62.9733 106.738 62.92V62.12C106.738 61.9333 106.752 61.6933 106.778 61.4C106.832 61.1067 106.858 60.8533 106.858 60.64C106.858 60.56 106.872 60.4533 106.898 60.32C106.952 60.16 106.978 60.0133 106.978 59.88V59.6L107.178 59.24L107.258 58.48L107.338 57.96V57.68L107.018 57.76L106.778 57.96C106.565 58.04 106.312 58.1467 106.018 58.28C105.752 58.3867 105.538 58.4533 105.378 58.48L104.578 58.72H103.898C103.818 58.72 103.698 58.6667 103.538 58.56L103.098 58.2L103.018 57.96V57.56ZM134.364 71.52C134.364 71.3333 134.444 70.9067 134.604 70.24C135.004 69.84 135.284 69.64 135.444 69.64H136.284C136.498 69.64 136.778 69.84 137.124 70.24L137.284 71.4C137.311 71.6933 137.351 71.9733 137.404 72.24C137.458 72.5067 137.484 72.72 137.484 72.88C137.271 73.2267 137.164 73.5067 137.164 73.72L136.764 73.92L136.484 74.24H136.204C136.071 74.24 135.884 74.1867 135.644 74.08C135.431 73.9733 135.258 73.8533 135.124 73.72L134.844 73.4C134.631 73.0533 134.524 72.7733 134.524 72.56C134.524 72.4 134.471 72.0533 134.364 71.52ZM143.028 71.52C143.028 71.3333 143.108 70.9067 143.268 70.24C143.668 69.84 143.948 69.64 144.108 69.64H144.948C145.162 69.64 145.442 69.84 145.788 70.24L145.948 71.4C145.975 71.6933 146.015 71.9733 146.068 72.24C146.122 72.5067 146.148 72.72 146.148 72.88C145.935 73.2267 145.828 73.5067 145.828 73.72L145.428 73.92L145.148 74.24H144.868C144.735 74.24 144.548 74.1867 144.308 74.08C144.095 73.9733 143.922 73.8533 143.788 73.72L143.508 73.4C143.295 73.0533 143.188 72.7733 143.188 72.56C143.188 72.4 143.135 72.0533 143.028 71.52ZM151.693 71.52C151.693 71.3333 151.773 70.9067 151.933 70.24C152.333 69.84 152.613 69.64 152.773 69.64H153.613C153.826 69.64 154.106 69.84 154.453 70.24L154.613 71.4C154.639 71.6933 154.679 71.9733 154.733 72.24C154.786 72.5067 154.813 72.72 154.813 72.88C154.599 73.2267 154.493 73.5067 154.493 73.72L154.093 73.92L153.813 74.24H153.533C153.399 74.24 153.213 74.1867 152.973 74.08C152.759 73.9733 152.586 73.8533 152.453 73.72L152.173 73.4C151.959 73.0533 151.853 72.7733 151.853 72.56C151.853 72.4 151.799 72.0533 151.693 71.52Z" fill="#FFE6AE"/>
</g>
<defs>
<filter id="filter0_d_496_1295" x="0.160156" y="0.719971" width="158.652" height="86.28" filterUnits="userSpaceOnUse" color-interpolation-filters="sRGB">
<feFlood flood-opacity="0" result="BackgroundImageFix"/>
<feColorMatrix in="SourceAlpha" type="matrix" values="0 0 0 0 0 0 0 0 0 0 0 0 0 0 0 0 0 0 127 0" result="hardAlpha"/>
<feOffset dy="4"/>
<feGaussianBlur stdDeviation="2"/>
<feComposite in2="hardAlpha" operator="out"/>
<feColorMatrix type="matrix" values="0 0 0 0 0 0 0 0 0 0 0 0 0 0 0 0 0 0 0.25 0"/>
<feBlend mode="normal" in2="BackgroundImageFix" result="effect1_dropShadow_496_1295"/>
<feBlend mode="normal" in="SourceGraphic" in2="effect1_dropShadow_496_1295" result="shape"/>
</filter>
</defs>
</svg>
